<mxfile host="app.diagrams.net" modified="2022-04-17T05:06:42.282Z" agent="5.0 (Windows NT 10.0; Win64; x64) AppleWebKit/537.36 (KHTML, like Gecko) Chrome/100.0.4896.127 Safari/537.36" etag="EwO-z201RaifqETff3_A" version="17.4.5" type="github">
  <diagram id="K4K4sw-SvnPi-Xp2zfu7" name="Page-1">
    <mxGraphModel dx="1384" dy="772" grid="1" gridSize="10" guides="1" tooltips="1" connect="1" arrows="1" fold="1" page="1" pageScale="1" pageWidth="827" pageHeight="1169" math="0" shadow="0">
      <root>
        <mxCell id="0" />
        <mxCell id="1" parent="0" />
        <mxCell id="qpIeX8erUlRtWaujeON5-71" style="edgeStyle=orthogonalEdgeStyle;rounded=0;orthogonalLoop=1;jettySize=auto;html=1;endArrow=open;endFill=0;" edge="1" parent="1" source="qpIeX8erUlRtWaujeON5-59" target="qpIeX8erUlRtWaujeON5-79">
          <mxGeometry relative="1" as="geometry">
            <mxPoint x="469" y="445" as="targetPoint" />
          </mxGeometry>
        </mxCell>
        <mxCell id="qpIeX8erUlRtWaujeON5-59" value="" style="ellipse;html=1;shape=startState;fillColor=#000000;strokeColor=#ff0000;" vertex="1" parent="1">
          <mxGeometry x="454" y="375" width="30" height="30" as="geometry" />
        </mxCell>
        <mxCell id="qpIeX8erUlRtWaujeON5-60" value="Start" style="text;html=1;strokeColor=none;fillColor=none;align=center;verticalAlign=middle;whiteSpace=wrap;rounded=0;" vertex="1" parent="1">
          <mxGeometry x="439" y="355" width="60" height="30" as="geometry" />
        </mxCell>
        <mxCell id="qpIeX8erUlRtWaujeON5-82" style="edgeStyle=orthogonalEdgeStyle;rounded=0;orthogonalLoop=1;jettySize=auto;html=1;fontSize=9;endArrow=open;endFill=0;" edge="1" parent="1" source="qpIeX8erUlRtWaujeON5-79" target="qpIeX8erUlRtWaujeON5-81">
          <mxGeometry relative="1" as="geometry" />
        </mxCell>
        <mxCell id="qpIeX8erUlRtWaujeON5-79" value="adicionarConhecimento()" style="rounded=0;whiteSpace=wrap;html=1;fontSize=9;" vertex="1" parent="1">
          <mxGeometry x="414" y="445" width="110" height="50" as="geometry" />
        </mxCell>
        <mxCell id="qpIeX8erUlRtWaujeON5-145" style="edgeStyle=orthogonalEdgeStyle;rounded=0;orthogonalLoop=1;jettySize=auto;html=1;fontSize=11;fontColor=default;endArrow=open;endFill=0;" edge="1" parent="1" source="qpIeX8erUlRtWaujeON5-81" target="qpIeX8erUlRtWaujeON5-144">
          <mxGeometry relative="1" as="geometry" />
        </mxCell>
        <mxCell id="qpIeX8erUlRtWaujeON5-81" value="Sistema cria objeto Conhecimento com dados fornecidos" style="rounded=1;whiteSpace=wrap;html=1;" vertex="1" parent="1">
          <mxGeometry x="559" y="445" width="110" height="50" as="geometry" />
        </mxCell>
        <mxCell id="qpIeX8erUlRtWaujeON5-88" style="edgeStyle=orthogonalEdgeStyle;rounded=0;orthogonalLoop=1;jettySize=auto;html=1;fontSize=9;endArrow=open;endFill=0;" edge="1" parent="1" source="qpIeX8erUlRtWaujeON5-84" target="qpIeX8erUlRtWaujeON5-87">
          <mxGeometry relative="1" as="geometry" />
        </mxCell>
        <mxCell id="qpIeX8erUlRtWaujeON5-84" value="Faz upload para armazenamento persistente" style="rounded=1;whiteSpace=wrap;html=1;" vertex="1" parent="1">
          <mxGeometry x="869" y="445" width="110" height="50" as="geometry" />
        </mxCell>
        <mxCell id="qpIeX8erUlRtWaujeON5-133" style="edgeStyle=orthogonalEdgeStyle;rounded=0;orthogonalLoop=1;jettySize=auto;html=1;fontSize=11;fontColor=default;endArrow=open;endFill=0;" edge="1" parent="1" source="qpIeX8erUlRtWaujeON5-87" target="qpIeX8erUlRtWaujeON5-130">
          <mxGeometry relative="1" as="geometry" />
        </mxCell>
        <mxCell id="qpIeX8erUlRtWaujeON5-87" value="uploadDocumento()" style="rounded=0;whiteSpace=wrap;html=1;fontSize=11;" vertex="1" parent="1">
          <mxGeometry x="1019" y="445" width="110" height="50" as="geometry" />
        </mxCell>
        <mxCell id="qpIeX8erUlRtWaujeON5-127" style="edgeStyle=orthogonalEdgeStyle;rounded=0;orthogonalLoop=1;jettySize=auto;html=1;fontSize=11;fontColor=default;endArrow=open;endFill=0;" edge="1" parent="1" source="qpIeX8erUlRtWaujeON5-91" target="qpIeX8erUlRtWaujeON5-126">
          <mxGeometry relative="1" as="geometry" />
        </mxCell>
        <mxCell id="qpIeX8erUlRtWaujeON5-91" value="enviarParaAnalise()" style="rounded=0;whiteSpace=wrap;html=1;fontSize=11;" vertex="1" parent="1">
          <mxGeometry x="1019" y="525" width="110" height="50" as="geometry" />
        </mxCell>
        <mxCell id="qpIeX8erUlRtWaujeON5-96" style="edgeStyle=orthogonalEdgeStyle;rounded=0;orthogonalLoop=1;jettySize=auto;html=1;entryX=0.5;entryY=0;entryDx=0;entryDy=0;fontSize=11;endArrow=open;endFill=0;" edge="1" parent="1" source="qpIeX8erUlRtWaujeON5-93" target="qpIeX8erUlRtWaujeON5-95">
          <mxGeometry relative="1" as="geometry" />
        </mxCell>
        <mxCell id="qpIeX8erUlRtWaujeON5-93" value="Funcionário vê de seu terminal o item" style="rounded=1;whiteSpace=wrap;html=1;" vertex="1" parent="1">
          <mxGeometry x="719" y="525" width="110" height="50" as="geometry" />
        </mxCell>
        <mxCell id="qpIeX8erUlRtWaujeON5-99" value="[Funcionário rejeita]" style="edgeStyle=orthogonalEdgeStyle;rounded=0;orthogonalLoop=1;jettySize=auto;html=1;entryX=0.5;entryY=0;entryDx=0;entryDy=0;fontSize=11;endArrow=open;endFill=0;" edge="1" parent="1" source="qpIeX8erUlRtWaujeON5-95" target="qpIeX8erUlRtWaujeON5-98">
          <mxGeometry x="-0.2772" y="-10" relative="1" as="geometry">
            <mxPoint as="offset" />
          </mxGeometry>
        </mxCell>
        <mxCell id="qpIeX8erUlRtWaujeON5-101" value="[Funcionário aprova]" style="edgeStyle=orthogonalEdgeStyle;rounded=0;orthogonalLoop=1;jettySize=auto;html=1;fontSize=11;endArrow=open;endFill=0;" edge="1" parent="1" source="qpIeX8erUlRtWaujeON5-95" target="qpIeX8erUlRtWaujeON5-100">
          <mxGeometry x="-0.371" y="10" relative="1" as="geometry">
            <mxPoint as="offset" />
          </mxGeometry>
        </mxCell>
        <mxCell id="qpIeX8erUlRtWaujeON5-95" value="" style="rhombus;" vertex="1" parent="1">
          <mxGeometry x="759" y="615" width="30" height="30" as="geometry" />
        </mxCell>
        <mxCell id="qpIeX8erUlRtWaujeON5-142" style="edgeStyle=orthogonalEdgeStyle;rounded=0;orthogonalLoop=1;jettySize=auto;html=1;fontSize=11;fontColor=default;endArrow=open;endFill=0;" edge="1" parent="1" source="qpIeX8erUlRtWaujeON5-98" target="qpIeX8erUlRtWaujeON5-141">
          <mxGeometry relative="1" as="geometry" />
        </mxCell>
        <mxCell id="qpIeX8erUlRtWaujeON5-98" value="Conhecimento recusado" style="rounded=1;whiteSpace=wrap;html=1;" vertex="1" parent="1">
          <mxGeometry x="574" y="665" width="110" height="50" as="geometry" />
        </mxCell>
        <mxCell id="qpIeX8erUlRtWaujeON5-136" style="edgeStyle=orthogonalEdgeStyle;rounded=0;orthogonalLoop=1;jettySize=auto;html=1;fontSize=11;fontColor=default;endArrow=open;endFill=0;" edge="1" parent="1" source="qpIeX8erUlRtWaujeON5-100" target="qpIeX8erUlRtWaujeON5-135">
          <mxGeometry relative="1" as="geometry" />
        </mxCell>
        <mxCell id="qpIeX8erUlRtWaujeON5-100" value="Conhecimento aceito." style="rounded=1;whiteSpace=wrap;html=1;" vertex="1" parent="1">
          <mxGeometry x="859" y="665" width="110" height="50" as="geometry" />
        </mxCell>
        <mxCell id="qpIeX8erUlRtWaujeON5-128" style="edgeStyle=orthogonalEdgeStyle;rounded=0;orthogonalLoop=1;jettySize=auto;html=1;fontSize=11;fontColor=default;endArrow=open;endFill=0;" edge="1" parent="1" source="qpIeX8erUlRtWaujeON5-126" target="qpIeX8erUlRtWaujeON5-93">
          <mxGeometry relative="1" as="geometry" />
        </mxCell>
        <mxCell id="qpIeX8erUlRtWaujeON5-126" value="Item é adicionado como pendente" style="rounded=1;whiteSpace=wrap;html=1;" vertex="1" parent="1">
          <mxGeometry x="869" y="525" width="110" height="50" as="geometry" />
        </mxCell>
        <mxCell id="qpIeX8erUlRtWaujeON5-131" value="[Upload feito]" style="edgeStyle=orthogonalEdgeStyle;rounded=0;orthogonalLoop=1;jettySize=auto;html=1;fontSize=11;fontColor=default;endArrow=open;endFill=0;" edge="1" parent="1" source="qpIeX8erUlRtWaujeON5-130" target="qpIeX8erUlRtWaujeON5-91">
          <mxGeometry x="-0.4839" relative="1" as="geometry">
            <Array as="points">
              <mxPoint x="1219" y="550" />
            </Array>
            <mxPoint as="offset" />
          </mxGeometry>
        </mxCell>
        <mxCell id="qpIeX8erUlRtWaujeON5-134" value="[Upload falhou]" style="edgeStyle=orthogonalEdgeStyle;rounded=0;orthogonalLoop=1;jettySize=auto;html=1;entryX=0.5;entryY=0;entryDx=0;entryDy=0;fontSize=11;fontColor=default;endArrow=open;endFill=0;" edge="1" parent="1" source="qpIeX8erUlRtWaujeON5-130" target="qpIeX8erUlRtWaujeON5-84">
          <mxGeometry x="-0.8442" relative="1" as="geometry">
            <Array as="points">
              <mxPoint x="1219" y="405" />
              <mxPoint x="924" y="405" />
            </Array>
            <mxPoint as="offset" />
          </mxGeometry>
        </mxCell>
        <mxCell id="qpIeX8erUlRtWaujeON5-130" value="" style="rhombus;" vertex="1" parent="1">
          <mxGeometry x="1204" y="455" width="30" height="30" as="geometry" />
        </mxCell>
        <mxCell id="qpIeX8erUlRtWaujeON5-140" style="edgeStyle=orthogonalEdgeStyle;rounded=0;orthogonalLoop=1;jettySize=auto;html=1;fontSize=11;fontColor=default;endArrow=open;endFill=0;" edge="1" parent="1" source="qpIeX8erUlRtWaujeON5-135" target="qpIeX8erUlRtWaujeON5-137">
          <mxGeometry relative="1" as="geometry" />
        </mxCell>
        <mxCell id="qpIeX8erUlRtWaujeON5-135" value="Atributo &lt;i&gt;status &lt;/i&gt;muda para &quot;True&quot;" style="rounded=1;whiteSpace=wrap;html=1;" vertex="1" parent="1">
          <mxGeometry x="859" y="765" width="110" height="50" as="geometry" />
        </mxCell>
        <mxCell id="qpIeX8erUlRtWaujeON5-137" value="" style="ellipse;html=1;shape=endState;fillColor=#000000;strokeColor=#ff0000;rounded=0;fontSize=11;fontColor=default;" vertex="1" parent="1">
          <mxGeometry x="759" y="775" width="30" height="30" as="geometry" />
        </mxCell>
        <mxCell id="qpIeX8erUlRtWaujeON5-138" value="End" style="text;html=1;strokeColor=none;fillColor=none;align=center;verticalAlign=middle;whiteSpace=wrap;rounded=0;" vertex="1" parent="1">
          <mxGeometry x="744" y="745" width="60" height="30" as="geometry" />
        </mxCell>
        <mxCell id="qpIeX8erUlRtWaujeON5-143" style="edgeStyle=orthogonalEdgeStyle;rounded=0;orthogonalLoop=1;jettySize=auto;html=1;fontSize=11;fontColor=default;endArrow=open;endFill=0;" edge="1" parent="1" source="qpIeX8erUlRtWaujeON5-141" target="qpIeX8erUlRtWaujeON5-137">
          <mxGeometry relative="1" as="geometry" />
        </mxCell>
        <mxCell id="qpIeX8erUlRtWaujeON5-141" value="Entrada é deletada" style="rounded=1;whiteSpace=wrap;html=1;" vertex="1" parent="1">
          <mxGeometry x="574" y="765" width="110" height="50" as="geometry" />
        </mxCell>
        <mxCell id="qpIeX8erUlRtWaujeON5-146" style="edgeStyle=orthogonalEdgeStyle;rounded=0;orthogonalLoop=1;jettySize=auto;html=1;fontSize=11;fontColor=default;endArrow=open;endFill=0;" edge="1" parent="1" source="qpIeX8erUlRtWaujeON5-144" target="qpIeX8erUlRtWaujeON5-84">
          <mxGeometry relative="1" as="geometry" />
        </mxCell>
        <mxCell id="qpIeX8erUlRtWaujeON5-144" value="Atributo &lt;i&gt;status &lt;/i&gt;é&lt;br&gt;por padrão &quot;false&quot;" style="rounded=1;whiteSpace=wrap;html=1;" vertex="1" parent="1">
          <mxGeometry x="714" y="445" width="110" height="50" as="geometry" />
        </mxCell>
      </root>
    </mxGraphModel>
  </diagram>
</mxfile>
